<svg width="129" height="180" viewBox="0 0 129 180" fill="none" xmlns="http://www.w3.org/2000/svg">
<path d="M57.3951 113.807C57.6887 114.404 57.6887 115.371 57.3951 115.967L38.0377 154.042C37.7441 154.639 37.9903 155.132 38.587 155.132H89.9164C90.513 155.132 90.7498 154.639 90.4562 154.042L19.0875 13.5189C18.7844 12.9316 19.0306 12.4484 19.6273 12.4484H108.867C109.473 12.4484 109.709 12.9316 109.416 13.5189L83.1167 65.2832C82.8231 65.88 82.8231 66.8463 83.1167 67.4432L88.3443 77.7316C88.6474 78.3189 89.1398 78.3189 89.4334 77.7316L128.376 1.08C128.679 0.483158 128.432 0 127.826 0H0.677049C0.0804152 0 -0.165814 0.483158 0.127767 1.08L57.3951 113.807ZM71.5154 141.603C71.8185 142.2 71.5628 142.683 70.9662 142.683H57.5561C56.95 142.683 56.7038 142.2 57.0068 141.603L63.7213 128.397C64.0244 127.8 64.5168 127.8 64.8199 128.397L71.5249 141.603H71.5154Z" fill="white" fill-opacity="0.8"/>
<path d="M71.1179 66.1927C70.8149 65.6053 70.8149 64.6295 71.1179 64.0327L90.4564 25.9579C90.75 25.3611 90.5133 24.8779 89.9166 24.8779H38.5872C37.9906 24.8779 37.7443 25.3611 38.0379 25.9579L109.416 166.481C109.71 167.078 109.473 167.561 108.867 167.561H19.6275C19.0309 167.561 18.7846 167.078 19.0877 166.481L45.3775 114.717C45.6805 114.13 45.6805 113.154 45.3775 112.557L40.1498 102.278C39.8562 101.681 39.3638 101.681 39.0702 102.278L0.128006 178.93C-0.175046 179.526 0.0806536 180 0.677287 180H127.827C128.433 180 128.679 179.526 128.376 178.93L71.1179 66.1927ZM56.9976 38.4064C56.6946 37.8095 56.9503 37.3264 57.5469 37.3264H70.9569C71.5536 37.3264 71.8093 37.8095 71.5062 38.4064L64.8012 51.6032C64.4981 52.2 64.0057 52.2 63.7026 51.6032L56.9881 38.4064H56.9976Z" fill="white" fill-opacity="0.8"/>
</svg>
