<svg width="18" height="19" viewBox="0 0 18 19" fill="none" xmlns="http://www.w3.org/2000/svg">
<path d="M16.9941 8.72671C16.8691 8.50796 16.6816 8.35171 16.4629 8.22671L2.05661 0.164214C1.80661 0.0392136 1.52536 -0.0232864 1.24411 0.00796356C0.962856 0.0392136 0.712856 0.132964 0.494106 0.320464C0.275356 0.507964 0.119106 0.757964 0.0566059 1.00796C-0.0371441 1.28921 -0.00589414 1.57046 0.0878559 1.85171L2.77536 9.44546L0.0878559 17.0392C-0.00589414 17.3205 -0.0058941 17.6017 0.0566059 17.8517C0.119106 18.133 0.275356 18.3517 0.494106 18.5392C0.712856 18.7267 0.962856 18.8205 1.24411 18.8517C1.27536 18.8517 1.33786 18.8517 1.36911 18.8517C1.58786 18.8517 1.83786 18.7892 2.05661 18.6642L16.4629 10.6017C16.6816 10.4767 16.8691 10.3205 16.9941 10.1017C17.1191 9.88296 17.1816 9.63296 17.1816 9.41421C17.1816 9.19546 17.1191 8.94546 16.9941 8.72671ZM1.43161 1.41421L14.4941 8.72671H4.02536L1.43161 1.41421ZM1.43161 17.4767L4.05661 10.1642H14.5254L1.43161 17.4767Z" fill="white"/>
</svg>
