<svg width="25" height="25" viewBox="0 0 25 25" fill="none" xmlns="http://www.w3.org/2000/svg">
<path d="M18.5156 10.0781H16.3281H15.5469V9.29688V6.875V6.09375H16.3281H17.9688C18.3984 6.09375 18.75 5.78125 18.75 5.3125V1.17188C18.75 0.742188 18.4375 0.390625 17.9688 0.390625H15.1172C12.0313 0.390625 9.88281 2.57812 9.88281 5.82031V9.21875V10H9.10156H6.44531C5.89844 10 5.39062 10.4297 5.39062 11.0547V13.8672C5.39062 14.4141 5.82031 14.9219 6.44531 14.9219H9.02344H9.80469V15.7031V23.5547C9.80469 24.1016 10.2344 24.6094 10.8594 24.6094H14.5313C14.7656 24.6094 14.9609 24.4922 15.1172 24.3359C15.2734 24.1797 15.3906 23.9062 15.3906 23.6719V15.7422V14.9609H16.2109H17.9688C18.4766 14.9609 18.8672 14.6484 18.9453 14.1797V14.1406V14.1016L19.4922 11.4062C19.5312 11.1328 19.4922 10.8203 19.2578 10.5078C19.1797 10.3125 18.8281 10.1172 18.5156 10.0781Z" fill="white"/>
</svg>
