<svg width="25" height="25" viewBox="0 0 25 25" fill="none" xmlns="http://www.w3.org/2000/svg">
<g clip-path="url(#clip0_5770_152)">
<path d="M24.5703 7.5C24.5312 6.25 24.2969 5.35156 24.0234 4.53125C23.75 3.71094 23.3203 3.04688 22.6562 2.38281C21.9922 1.71875 21.3281 1.32812 20.5469 1.01562C19.7656 0.703125 18.9062 0.507813 17.5781 0.46875C16.2109 0.390625 15.8203 0.390625 12.5 0.390625C9.17969 0.390625 8.82812 0.390625 7.5 0.429688C6.17188 0.46875 5.35156 0.703125 4.53125 0.976562C3.71094 1.25 3.04688 1.71875 2.38281 2.38281C1.71875 3.04688 1.28906 3.71094 1.01562 4.53125C0.703125 5.3125 0.507813 6.17188 0.46875 7.5C0.429688 8.82812 0.390625 9.17969 0.390625 12.5C0.390625 15.8203 0.390625 16.1719 0.429688 17.5C0.46875 18.8281 0.703125 19.6484 0.976562 20.4688C1.25 21.2891 1.67969 21.9531 2.34375 22.6172C3.00781 23.2812 3.71094 23.7109 4.49219 23.9844C5.27344 24.2578 6.13281 24.4922 7.46094 24.5312C8.78906 24.6094 9.14062 24.6094 12.4609 24.6094C15.7812 24.6094 16.1328 24.6094 17.4609 24.5703C18.7891 24.5312 19.6094 24.2969 20.4297 24.0234C21.25 23.75 21.9141 23.3203 22.5781 22.6562C23.2422 21.9922 23.6719 21.2891 23.9453 20.5078C24.2188 19.7266 24.4531 18.8672 24.4922 17.5391C24.5312 16.2891 24.5312 15.8984 24.5312 12.5781C24.5312 9.25781 24.6094 8.82812 24.5703 7.5ZM22.3828 17.3828C22.3438 18.5547 22.1094 19.1797 21.9531 19.6484C21.7188 20.1953 21.4453 20.625 21.0156 21.0156C20.5859 21.4453 20.1953 21.6797 19.6484 21.9531C19.2188 22.1094 18.5938 22.3438 17.3828 22.3828C16.1328 22.3828 15.7422 22.3828 12.5391 22.3828C9.33594 22.3828 8.90625 22.3828 7.65625 22.3438C6.48438 22.3047 5.85938 22.0703 5.39062 21.9141C4.84375 21.6797 4.41406 21.4062 4.02344 20.9766C3.59375 20.5469 3.35938 20.1562 3.08594 19.6094C2.92969 19.1797 2.69531 18.5547 2.65625 17.3438C2.65625 16.1328 2.65625 15.7422 2.65625 12.5C2.65625 9.25781 2.65625 8.86719 2.69531 7.61719C2.73438 6.44531 2.96875 5.82031 3.125 5.35156C3.35938 4.80469 3.63281 4.375 4.02344 3.98438C4.45312 3.55469 4.84375 3.32031 5.39062 3.08594C5.82031 2.92969 6.44531 2.69531 7.65625 2.65625C8.90625 2.61719 9.29687 2.61719 12.5391 2.61719C15.7812 2.61719 16.1719 2.61719 17.4219 2.65625C18.5938 2.69531 19.2188 2.92969 19.6875 3.08594C20.2344 3.32031 20.6641 3.59375 21.0547 3.98438C21.4844 4.41406 21.7188 4.80469 21.9922 5.35156C22.1484 5.78125 22.3828 6.40625 22.4219 7.61719C22.4609 8.86719 22.4609 9.25781 22.4609 12.5C22.4609 15.7422 22.4219 16.1328 22.3828 17.3828Z" fill="white"/>
<path d="M12.501 6.28906C9.02441 6.28906 6.29004 9.10156 6.29004 12.5C6.29004 15.9766 9.10254 18.7109 12.501 18.7109C15.8994 18.7109 18.751 15.9766 18.751 12.5C18.751 9.02344 15.9775 6.28906 12.501 6.28906ZM12.501 16.5625C10.2354 16.5625 8.43848 14.7266 8.43848 12.5C8.43848 10.2734 10.2744 8.4375 12.501 8.4375C14.7666 8.4375 16.5635 10.2344 16.5635 12.5C16.5635 14.7656 14.7666 16.5625 12.501 16.5625Z" fill="white"/>
<path d="M19.0234 7.46094C19.8217 7.46094 20.4688 6.81383 20.4688 6.01562C20.4688 5.21738 19.8217 4.57031 19.0234 4.57031C18.2252 4.57031 17.5781 5.21738 17.5781 6.01562C17.5781 6.81383 18.2252 7.46094 19.0234 7.46094Z" fill="white"/>
</g>
<defs>
<clipPath id="clip0_5770_152">
<rect width="25" height="25" fill="white"/>
</clipPath>
</defs>
</svg>
