<svg width="25" height="25" viewBox="0 0 25 25" fill="none" xmlns="http://www.w3.org/2000/svg">
<path d="M20.7031 3.51562C18.4375 1.25 15.3516 0 12.1875 0C5.54688 0 0.117187 5.39063 0.117187 12.0313C0.117187 14.1797 0.664062 16.2109 1.71875 18.0859L0 24.2969L6.44531 22.6563C8.20312 23.5938 10.1953 24.1406 12.2266 24.1406C18.8281 24.1016 24.2188 18.7109 24.2188 12.0313C24.2188 8.82813 22.9688 5.82032 20.7031 3.51562ZM12.1484 22.0703C10.3906 22.0703 8.55469 21.5625 7.03125 20.625L6.64062 20.3906L2.85156 21.3672L3.90625 17.6953L3.67187 17.3047C2.69531 15.7031 2.14844 13.8281 2.14844 11.9531C2.14844 6.44532 6.60156 1.99219 12.1484 1.99219C14.8047 1.99219 17.3047 3.04687 19.1797 4.92188C21.0547 6.79688 22.1094 9.33594 22.1094 12.0313C22.1875 17.6172 17.6562 22.0703 12.1484 22.0703ZM17.6562 14.5703C17.3438 14.4141 15.8984 13.6719 15.5469 13.6328C15.2734 13.5156 15.0391 13.4766 14.8828 13.7891C14.7266 14.1016 14.1016 14.7266 13.9453 14.9609C13.7891 15.1172 13.6328 15.1953 13.2812 15C12.9688 14.8438 12.0312 14.5703 10.8594 13.4766C9.96094 12.6953 9.33594 11.7188 9.21875 11.3672C9.0625 11.0547 9.17969 10.9375 9.375 10.7422C9.53125 10.5859 9.6875 10.4297 9.80469 10.1953C9.96094 10.0391 9.96094 9.88282 10.1172 9.6875C10.2734 9.53125 10.1562 9.29688 10.0781 9.14063C9.96094 8.98438 9.41406 7.5 9.14062 6.875C8.90625 6.25 8.63281 6.36719 8.47656 6.36719C8.32031 6.36719 8.08594 6.36719 7.92969 6.36719C7.77344 6.36719 7.38281 6.40625 7.14844 6.75782C6.875 7.07032 6.09375 7.8125 6.09375 9.29688C6.09375 10.7813 7.14844 12.1484 7.34375 12.4219C7.5 12.5781 9.49219 15.6641 12.4609 16.9922C13.1641 17.3047 13.7109 17.5 14.1797 17.6563C14.8828 17.8906 15.5469 17.8125 16.0547 17.7734C16.6406 17.7344 17.8125 17.0703 18.0859 16.3281C18.3203 15.6641 18.3203 15 18.2422 14.8828C18.1641 14.8047 17.9297 14.6875 17.6562 14.5703Z" fill="white"/>
</svg>
